<mxfile host="app.diagrams.net" modified="2023-08-23T23:27:19.011Z" agent="Mozilla/5.0 (Windows NT 10.0; Win64; x64) AppleWebKit/537.36 (KHTML, like Gecko) Chrome/116.0.0.0 Safari/537.36" etag="72GBUlxioA4Atwllh5z4" version="21.6.8">
  <diagram name="Page-1" id="ell0tZ1f36jQYtFjTJQn">
    <mxGraphModel dx="794" dy="513" grid="1" gridSize="10" guides="1" tooltips="1" connect="1" arrows="1" fold="1" page="1" pageScale="1" pageWidth="850" pageHeight="1100" math="0" shadow="0">
      <root>
        <mxCell id="0" />
        <mxCell id="1" parent="0" />
        <mxCell id="KObJInpMsPR6IS1wpQM1-5" value="&lt;br&gt;SodaSurpler" style="swimlane;fontStyle=0;align=center;verticalAlign=top;childLayout=stackLayout;horizontal=1;startSize=55;horizontalStack=0;resizeParent=1;resizeParentMax=0;resizeLast=0;collapsible=0;marginBottom=0;html=1;whiteSpace=wrap;" parent="1" vertex="1">
          <mxGeometry x="285" y="180" width="280" height="220" as="geometry" />
        </mxCell>
        <mxCell id="KObJInpMsPR6IS1wpQM1-6" value="attributes" style="text;html=1;strokeColor=none;fillColor=none;align=center;verticalAlign=middle;spacingLeft=4;spacingRight=4;overflow=hidden;rotatable=0;points=[[0,0.5],[1,0.5]];portConstraint=eastwest;whiteSpace=wrap;" parent="KObJInpMsPR6IS1wpQM1-5" vertex="1">
          <mxGeometry y="55" width="280" height="20" as="geometry" />
        </mxCell>
        <mxCell id="KObJInpMsPR6IS1wpQM1-7" value="- E: Integer&lt;span style=&quot;white-space: pre;&quot;&gt;&#x9;&lt;/span&gt;" style="text;html=1;strokeColor=none;fillColor=none;align=left;verticalAlign=middle;spacingLeft=4;spacingRight=4;overflow=hidden;rotatable=0;points=[[0,0.5],[1,0.5]];portConstraint=eastwest;whiteSpace=wrap;" parent="KObJInpMsPR6IS1wpQM1-5" vertex="1">
          <mxGeometry y="75" width="280" height="20" as="geometry" />
        </mxCell>
        <mxCell id="KObJInpMsPR6IS1wpQM1-8" value="- F: Integer" style="text;html=1;strokeColor=none;fillColor=none;align=left;verticalAlign=middle;spacingLeft=4;spacingRight=4;overflow=hidden;rotatable=0;points=[[0,0.5],[1,0.5]];portConstraint=eastwest;fontColor=#808080;whiteSpace=wrap;" parent="KObJInpMsPR6IS1wpQM1-5" vertex="1">
          <mxGeometry y="95" width="280" height="20" as="geometry" />
        </mxCell>
        <mxCell id="KObJInpMsPR6IS1wpQM1-9" value="- C: Integer" style="text;html=1;strokeColor=none;fillColor=none;align=left;verticalAlign=middle;spacingLeft=4;spacingRight=4;overflow=hidden;rotatable=0;points=[[0,0.5],[1,0.5]];portConstraint=eastwest;whiteSpace=wrap;" parent="KObJInpMsPR6IS1wpQM1-5" vertex="1">
          <mxGeometry y="115" width="280" height="20" as="geometry" />
        </mxCell>
        <mxCell id="KObJInpMsPR6IS1wpQM1-10" value="" style="line;strokeWidth=1;fillColor=none;align=left;verticalAlign=middle;spacingTop=-1;spacingLeft=3;spacingRight=3;rotatable=0;labelPosition=right;points=[];portConstraint=eastwest;" parent="KObJInpMsPR6IS1wpQM1-5" vertex="1">
          <mxGeometry y="135" width="280" height="8" as="geometry" />
        </mxCell>
        <mxCell id="KObJInpMsPR6IS1wpQM1-11" value="operations" style="text;html=1;strokeColor=none;fillColor=none;align=center;verticalAlign=middle;spacingLeft=4;spacingRight=4;overflow=hidden;rotatable=0;points=[[0,0.5],[1,0.5]];portConstraint=eastwest;whiteSpace=wrap;" parent="KObJInpMsPR6IS1wpQM1-5" vertex="1">
          <mxGeometry y="143" width="280" height="20" as="geometry" />
        </mxCell>
        <mxCell id="KObJInpMsPR6IS1wpQM1-12" value="+ calculateExtraDrunkSodas(int E, int F, int C) : Int" style="text;html=1;strokeColor=none;fillColor=none;align=left;verticalAlign=middle;spacingLeft=4;spacingRight=4;overflow=hidden;rotatable=0;points=[[0,0.5],[1,0.5]];portConstraint=eastwest;whiteSpace=wrap;" parent="KObJInpMsPR6IS1wpQM1-5" vertex="1">
          <mxGeometry y="163" width="280" height="57" as="geometry" />
        </mxCell>
        <mxCell id="KObJInpMsPR6IS1wpQM1-13" value="&lt;div style=&quot;line-height: 100%; font-size: 13px;&quot;&gt;&lt;font style=&quot;font-size: 13px;&quot;&gt;&lt;br&gt;&lt;/font&gt;&lt;/div&gt;&lt;ul style=&quot;line-height: 100%; font-size: 13px;&quot;&gt;&lt;li style=&quot;&quot;&gt;&lt;span style=&quot;background-color: initial;&quot;&gt;&lt;font style=&quot;font-size: 13px;&quot;&gt;E &amp;lt; 1000.Número de garrafas vazias no inicio do dia;&lt;/font&gt;&lt;/span&gt;&lt;/li&gt;&lt;li style=&quot;&quot;&gt;&lt;span style=&quot;background-color: initial;&quot;&gt;&lt;font style=&quot;font-size: 13px;&quot;&gt;F &amp;lt; 1000. Número de garrafas vazias encontradas durante o dia;&lt;/font&gt;&lt;/span&gt;&lt;/li&gt;&lt;li style=&quot;&quot;&gt;&lt;span style=&quot;background-color: initial;&quot;&gt;&lt;font style=&quot;font-size: 13px;&quot;&gt;C &amp;lt; 2000. Número de garrafas necessárias para comprar uma Soda.&lt;/font&gt;&lt;/span&gt;&lt;/li&gt;&lt;/ul&gt;" style="shape=note;whiteSpace=wrap;html=1;backgroundOutline=1;darkOpacity=0.05;align=left;size=19;" parent="1" vertex="1">
          <mxGeometry x="590" y="230" width="230" height="150" as="geometry" />
        </mxCell>
      </root>
    </mxGraphModel>
  </diagram>
</mxfile>
